<svg width="18" height="20" viewBox="0 0 18 20" fill="none" xmlns="http://www.w3.org/2000/svg">
<path fill-rule="evenodd" clip-rule="evenodd" d="M9 0C8.44772 0 8 0.447716 8 1V19C8 19.5523 8.44772 20 9 20C9.55228 20 10 19.5523 10 19V1C10 0.447716 9.55228 0 9 0ZM0 4C0 3.44772 0.447715 3 1 3C1.55228 3 2 3.44772 2 4V16C2 16.5523 1.55228 17 1 17C0.447715 17 0 16.5523 0 16V4ZM16 4C16 3.44772 16.4477 3 17 3C17.5523 3 18 3.44772 18 4V16C18 16.5523 17.5523 17 17 17C16.4477 17 16 16.5523 16 16V4Z" fill="white"/>
</svg>
