<svg width="80" height="80" viewBox="0 0 80 80" fill="none" xmlns="http://www.w3.org/2000/svg">
<path fill-rule="evenodd" clip-rule="evenodd" d="M59.6 1.70223e-06C58.4954 1.70223e-06 57.6 0.895432 57.6 2V3C57.6 4.10457 58.4954 5 59.6 5H73C74.1046 5 75 5.89543 75 7V26C75 27.1046 75.8954 28 77 28H78C79.1046 28 80 27.1046 80 26V5V2C80 0.895432 79.1046 1.70223e-06 78 1.70223e-06H75H59.6ZM80 54C80 52.8954 79.1046 52 78 52H77C75.8954 52 75 52.8954 75 54V73C75 74.1046 74.1046 75 73 75H59.6C58.4954 75 57.6 75.8954 57.6 77V78C57.6 79.1046 58.4954 80 59.6 80H75H78C79.1046 80 80 79.1046 80 78V75V54ZM3 28C4.10457 28 5 27.1046 5 26V7C5 5.89543 5.89543 5 7 5H20.4C21.5046 5 22.4 4.10457 22.4 3V2C22.4 0.895431 21.5046 -1.22093e-07 20.4 0L5 1.70223e-06H2C0.89543 1.70223e-06 0 0.895432 0 2V5V26C0 27.1046 0.895431 28 2 28H3ZM2 52C0.89543 52 0 52.8954 0 54V75V78C0 79.1046 0.895431 80 2 80H5H20.4C21.5046 80 22.4 79.1046 22.4 78V77C22.4 75.8954 21.5046 75 20.4 75H7C5.89543 75 5 74.1046 5 73V54C5 52.8954 4.10457 52 3 52H2Z" fill="white"/>
</svg>
