<svg width="1000" height="163" viewBox="0 0 1000 163" fill="none" xmlns="http://www.w3.org/2000/svg">
<path d="M53.7229 10.6727H70.8333V135.432H52.435C33.1782 86.2399 20.6061 53.6086 14.7186 37.5383C14.7186 38.8877 14.9639 41.7092 15.4545 46.0028C16.4358 56.6754 16.9264 68.5135 16.9264 81.5169V135.432H0V10.6727H18.5822C35.6313 53.8539 45.9956 80.5969 49.6753 90.9015C53.355 101.206 55.4401 107.033 55.9307 108.383C55.9307 107.279 55.5627 101.881 54.8268 92.1896C54.2135 82.3757 53.8456 72.9298 53.7229 63.8519V10.6727Z" fill="white"/>
<path d="M137.212 57.0435C137.212 47.5976 132.49 42.8746 123.046 42.8746C113.601 42.8746 108.879 47.5976 108.879 57.0435V108.015C108.879 117.46 113.601 122.183 123.046 122.183C132.49 122.183 137.212 117.46 137.212 108.015V57.0435ZM91.7685 56.6754C91.7685 47.8429 94.3443 40.8505 99.4958 35.6982C104.647 30.4232 112.497 27.7857 123.046 27.7857C133.594 27.7857 141.444 30.4232 146.595 35.6982C151.869 40.8505 154.507 47.8429 154.507 56.6754V108.383C154.507 117.215 151.869 124.269 146.595 129.544C141.444 134.696 133.594 137.272 123.046 137.272C112.497 137.272 104.647 134.696 99.4958 129.544C94.3443 124.269 91.7685 117.215 91.7685 108.383V56.6754Z" fill="white"/>
<path d="M212.891 29.0738H217.122V45.4508H211.603C205.838 45.4508 199.521 47.7816 192.653 52.4432V135.432H175.358V29.6258H191.917V37.3543C192.285 37.1089 192.959 36.6182 193.941 35.8822C195.045 35.1461 195.719 34.7168 195.964 34.5941C196.332 34.3488 196.946 33.9194 197.804 33.306C198.786 32.6927 199.46 32.3246 199.828 32.2019C200.196 32.0793 200.748 31.8339 201.484 31.4659C202.343 30.9752 203.017 30.6685 203.508 30.5459C203.998 30.4232 204.612 30.2392 205.348 29.9938C206.206 29.6258 207.003 29.4418 207.739 29.4418C209.947 29.1964 211.664 29.0738 212.891 29.0738Z" fill="white"/>
<path d="M247.286 10.6727V29.6258H268.628V44.5307H247.286V110.223C247.286 117.338 250.965 120.895 258.324 120.895C261.881 120.895 265.868 120.159 270.283 118.687V134.328C270.161 134.328 269.547 134.451 268.444 134.696C267.462 134.942 266.42 135.187 265.316 135.432C262.004 136.168 258.815 136.536 255.749 136.536C238.577 136.536 229.991 128.194 229.991 111.511V44.5307H218.952V29.6258H230.543L235.695 10.6727H247.286Z" fill="white"/>
<path d="M284.418 1.47209H301.713V33.122C307.968 30.4232 314.653 29.0738 321.767 29.0738C329.004 29.0738 334.891 31.0979 339.429 35.1461C343.967 39.1944 346.237 45.2054 346.237 53.1792V135.432H328.574V56.1234C328.574 48.8856 324.956 45.2668 317.719 45.2668C312.2 45.2668 306.864 46.5548 301.713 49.131V135.432H284.418V1.47209Z" fill="white"/>
<path d="M366.305 107.463V56.6754C366.305 47.8429 368.881 40.8505 374.032 35.6982C379.184 30.4232 387.034 27.7857 397.582 27.7857C408.13 27.7857 415.919 30.4232 420.948 35.6982C425.977 40.8505 428.491 47.8429 428.491 56.6754V90.3495H383.231V106.542C383.231 111.449 384.703 115.068 387.647 117.399C390.713 119.73 395.988 120.895 403.47 120.895C411.074 120.895 418.433 119.791 425.547 117.583V133.408C418.188 135.371 410.338 136.352 401.998 136.352C378.203 136.352 366.305 126.722 366.305 107.463ZM383.231 76.3646H412.117V56.8595C412.117 47.2909 407.272 42.5066 397.582 42.5066C388.015 42.5066 383.231 47.2909 383.231 56.8595V76.3646Z" fill="white"/>
<path d="M485.631 29.0738H489.862V45.4508H484.343C478.578 45.4508 472.261 47.7816 465.393 52.4432V135.432H448.098V29.6258H464.657V37.3543C465.025 37.1089 465.699 36.6182 466.68 35.8822C467.784 35.1461 468.459 34.7168 468.704 34.5941C469.072 34.3488 469.686 33.9194 470.544 33.306C471.525 32.6927 472.2 32.3246 472.568 32.2019C472.936 32.0793 473.488 31.8339 474.224 31.4659C475.082 30.9752 475.757 30.6685 476.248 30.5459C476.738 30.4232 477.351 30.2392 478.087 29.9938C478.946 29.6258 479.743 29.4418 480.479 29.4418C482.687 29.1964 484.404 29.0738 485.631 29.0738Z" fill="white"/>
<path d="M518.737 34.4101C526.587 30.9752 533.885 29.2578 540.631 29.2578C547.5 29.2578 553.081 31.3432 557.374 35.5142C561.789 39.5624 563.997 45.4508 563.997 53.1792V135.432H546.335V56.1234C546.335 48.8856 542.717 45.2668 535.48 45.2668C530.206 45.2668 524.87 46.6162 519.473 49.315V135.432H502.179V29.6258H518.737V34.4101Z" fill="white"/>
<path d="M620.582 10.6727H638.06V120.527H674.489V135.432H620.582V10.6727Z" fill="white"/>
<path d="M705.647 10.3046C705.647 17.0517 702.274 20.4252 695.527 20.4252C688.781 20.4252 685.408 17.0517 685.408 10.3046C685.408 3.43488 688.781 0 695.527 0C702.274 0 705.647 3.43488 705.647 10.3046ZM686.88 30.9139H704.175V135.432H686.88V30.9139Z" fill="white"/>
<path d="M795.204 36.4342H788.949C786.128 36.4342 783.736 36.9862 781.774 38.0903C785.208 42.3839 786.925 48.0883 786.925 55.2033V70.2923C786.925 78.8794 784.288 85.5652 779.014 90.3495C773.862 95.1338 766.013 97.5873 755.464 97.7099C749.699 97.7099 746.817 100.409 746.817 105.806C746.817 108.383 747.553 110.223 749.025 111.327C750.619 112.431 753.379 112.983 757.304 112.983H767.975C785.392 112.983 794.101 120.282 794.101 134.88V138.008C794.101 154.569 782.387 162.85 758.96 162.85H751.785C738.415 162.85 728.296 160.703 721.427 156.409V140.216C729.523 145.491 739.519 148.129 751.417 148.129H757.304C764.663 148.129 769.876 147.27 772.943 145.553C776.009 143.835 777.542 141.259 777.542 137.824V136.168C777.542 133.224 776.745 131.077 775.15 129.728C773.678 128.256 770.735 127.52 766.319 127.52H755.096C739.274 127.52 731.362 122.183 731.362 111.511V108.567C731.362 101.697 734.613 97.5259 741.113 96.0538C728.725 92.4963 722.531 83.9091 722.531 70.2923V55.2033C722.531 46.4935 725.168 39.7464 730.443 34.9621C735.839 30.1778 743.321 27.7857 752.888 27.7857C762.455 27.7857 769.815 29.2578 774.966 32.2019C777.542 24.3508 783.368 20.4252 792.445 20.4252H795.204V36.4342ZM769.631 70.1083V55.3874C769.631 50.8484 768.466 47.5362 766.135 45.4508C763.805 43.2426 760.002 42.1386 754.728 42.1386C749.454 42.1386 745.652 43.2426 743.321 45.4508C740.991 47.5362 739.826 50.8484 739.826 55.3874V70.1083C739.826 74.6472 740.991 78.0207 743.321 80.2289C745.652 82.3143 749.454 83.3571 754.728 83.3571C760.002 83.3571 763.805 82.3143 766.135 80.2289C768.466 78.0207 769.631 74.6472 769.631 70.1083Z" fill="white"/>
<path d="M809.595 1.47209H826.89V33.122C833.145 30.4232 839.83 29.0738 846.944 29.0738C854.18 29.0738 860.068 31.0979 864.606 35.1461C869.144 39.1944 871.413 45.2054 871.413 53.1792V135.432H853.751V56.1234C853.751 48.8856 850.133 45.2668 842.896 45.2668C837.377 45.2668 832.041 46.5548 826.89 49.131V135.432H809.595V1.47209Z" fill="white"/>
<path d="M911.168 10.6727V29.6258H932.51V44.5307H911.168V110.223C911.168 117.338 914.848 120.895 922.207 120.895C925.764 120.895 929.75 120.159 934.166 118.687V134.328C934.043 134.328 933.43 134.451 932.326 134.696C931.345 134.942 930.302 135.187 929.198 135.432C925.887 136.168 922.698 136.536 919.631 136.536C902.46 136.536 893.874 128.194 893.874 111.511V44.5307H882.835V29.6258H894.426L899.577 10.6727H911.168Z" fill="white"/>
<path d="M941.677 55.3874C941.677 46.4321 944.253 39.7464 949.405 35.3301C954.679 30.9139 963.204 28.7057 974.978 28.7057C982.828 28.7057 989.82 29.6871 995.952 31.6499V47.4749C990.065 45.2667 983.564 44.1627 976.45 44.1627C969.336 44.1627 964.614 45.1441 962.284 47.1069C959.953 48.947 958.788 52.0138 958.788 56.3074V59.9876C958.788 63.2998 959.463 65.8147 960.812 67.5321C962.161 69.2495 964.737 71.0896 968.539 73.0524L984.178 81.5169C994.726 87.1599 1000 94.7657 1000 104.334V109.119C1000 127.274 988.225 136.352 964.675 136.352C956.703 136.352 949.159 135.432 942.045 133.592V117.583C948.301 119.669 955.17 120.711 962.652 120.711C970.256 120.711 975.469 119.73 978.29 117.767C981.234 115.804 982.706 112.799 982.706 108.751V105.622C982.706 102.678 981.908 100.347 980.314 98.63C978.842 96.7899 975.837 94.7044 971.299 92.3736L956.396 84.6451C946.584 79.6155 941.677 71.8257 941.677 61.2757V55.3874Z" fill="white"/>
</svg>
